<?xml version="1.0" encoding="UTF-8"?><svg xmlns="http://www.w3.org/2000/svg" xmlns:xlink="http://www.w3.org/1999/xlink" width="375pt" zoomAndPan="magnify" viewBox="0 0 375 374.999991" height="374.999991pt" preserveAspectRatio="xMidYMid meet" version="1.2"><defs><g/><clipPath xml:id="clip1" id="clip1"><path d="M 245.601562 125.777344 L 313.550781 125.777344 L 313.550781 194.75 L 245.601562 194.75 Z M 245.601562 125.777344 "/></clipPath><clipPath xml:id="clip2" id="clip2"><path d="M 132.027344 161.136719 L 249.347656 161.136719 L 249.347656 259.226562 L 132.027344 259.226562 Z M 132.027344 161.136719 "/></clipPath></defs><g xml:id="surface1" id="surface1"><path style=" stroke:none;fill-rule:evenodd;fill:rgb(73.329163%,62.348938%,18.429565%);fill-opacity:1;" d="M 149.921875 77.933594 C 194.492188 71.691406 198.09375 151.449219 156.851562 149.519531 C 123.695312 147.96875 111.183594 83.359375 149.921875 77.933594 "/><path style=" stroke:none;fill-rule:evenodd;fill:rgb(73.329163%,62.348938%,18.429565%);fill-opacity:1;" d="M 221.5625 77.9375 C 270.652344 67.226562 264.921875 154.367188 219.253906 149.519531 C 183.105469 145.679688 190.148438 84.785156 221.5625 77.9375 "/><path style=" stroke:none;fill-rule:evenodd;fill:rgb(73.329163%,62.348938%,18.429565%);fill-opacity:1;" d="M 133.746094 173.765625 C 116.289062 211.839844 63.089844 184.941406 69.039062 147.207031 C 75.300781 107.460938 146.441406 127.722656 133.746094 173.765625 "/><g clip-rule="nonzero" clip-path="url(#clip1)"><path style=" stroke:none;fill-rule:evenodd;fill:rgb(73.329163%,62.348938%,18.429565%);fill-opacity:1;" d="M 278.1875 126.425781 C 289.667969 124.207031 304.023438 128.28125 309.382812 137.96875 C 324.164062 164.703125 296.917969 197.371094 270.09375 194.542969 C 255.363281 193 246.855469 180.46875 245.828125 169.144531 C 243.636719 144.894531 260.957031 129.757812 278.1875 126.425781 "/></g><g clip-rule="nonzero" clip-path="url(#clip2)"><path style=" stroke:none;fill-rule:evenodd;fill:rgb(73.329163%,62.348938%,18.429565%);fill-opacity:1;" d="M 178.808594 162.214844 C 219.296875 155.238281 256.464844 184.390625 248.140625 233.800781 C 246.417969 244.027344 237.605469 258.488281 225.027344 259.199219 C 214.875 259.78125 203.003906 249.902344 190.367188 249.964844 C 174.671875 250.039062 162.300781 263.945312 147.609375 256.894531 C 135.269531 250.964844 130.28125 226.996094 132.589844 209.558594 C 135.910156 184.414062 154.414062 166.421875 178.808594 162.214844 "/></g><g style="fill:rgb(100%,100%,100%);fill-opacity:1;"><g transform="translate(110.052413, 290.468302)"><path style="stroke:none;" d="M 0.84375 -11.53125 L 5.046875 -11.53125 C 6.222656 -11.53125 7.171875 -11.226562 7.890625 -10.625 C 8.617188 -10.019531 8.984375 -9.140625 8.984375 -7.984375 C 8.984375 -6.828125 8.613281 -5.921875 7.875 -5.265625 C 7.144531 -4.609375 6.203125 -4.28125 5.046875 -4.28125 L 3.46875 -4.28125 L 3.46875 0 L 0.84375 0 Z M 3.46875 -6.375 L 4.203125 -6.375 C 4.796875 -6.375 5.28125 -6.492188 5.65625 -6.734375 C 6.03125 -6.972656 6.21875 -7.363281 6.21875 -7.90625 C 6.21875 -8.445312 6.03125 -8.835938 5.65625 -9.078125 C 5.28125 -9.316406 4.796875 -9.4375 4.203125 -9.4375 L 3.46875 -9.4375 Z M 3.46875 -6.375 "/></g></g><g style="fill:rgb(100%,100%,100%);fill-opacity:1;"><g transform="translate(127.744287, 290.468302)"><path style="stroke:none;" d="M 6.703125 -11.53125 L 11.359375 0 L 8.53125 0 L 7.671875 -2.3125 L 3.28125 -2.3125 L 2.4375 0 L -0.390625 0 L 4.265625 -11.53125 Z M 6.78125 -4.609375 L 5.5 -7.96875 L 5.46875 -7.96875 L 4.1875 -4.609375 Z M 6.78125 -4.609375 "/></g></g><g style="fill:rgb(100%,100%,100%);fill-opacity:1;"><g transform="translate(147.084476, 290.468302)"><path style="stroke:none;" d="M 9.6875 0 L 7.84375 -6.46875 L 6 0 L 3.078125 0 L -0.203125 -11.53125 L 2.71875 -11.53125 L 4.6875 -3.625 L 4.75 -3.625 L 6.859375 -11.53125 L 8.84375 -11.53125 L 10.9375 -3.625 L 11 -3.625 L 12.984375 -11.53125 L 15.890625 -11.53125 L 12.59375 0 Z M 9.6875 0 "/></g></g><g style="fill:rgb(100%,100%,100%);fill-opacity:1;"><g transform="translate(171.132137, 290.468302)"><path style="stroke:none;" d=""/></g></g><g style="fill:rgb(100%,100%,100%);fill-opacity:1;"><g transform="translate(183.334279, 290.468302)"><path style="stroke:none;" d="M 7.515625 -11.53125 L 7.515625 -9.234375 L 3.46875 -9.234375 L 3.46875 -6.9375 L 7.203125 -6.9375 L 7.203125 -4.625 L 3.46875 -4.625 L 3.46875 0 L 0.84375 0 L 0.84375 -11.53125 Z M 7.515625 -11.53125 "/></g></g><g style="fill:rgb(100%,100%,100%);fill-opacity:1;"><g transform="translate(199.643247, 290.468302)"><path style="stroke:none;" d="M 9.703125 -11.53125 L 9.703125 -4.09375 C 9.703125 -2.675781 9.316406 -1.601562 8.546875 -0.875 C 7.785156 -0.15625 6.671875 0.203125 5.203125 0.203125 C 3.734375 0.203125 2.613281 -0.15625 1.84375 -0.875 C 1.082031 -1.601562 0.703125 -2.675781 0.703125 -4.09375 L 0.703125 -11.53125 L 3.328125 -11.53125 L 3.328125 -4.859375 C 3.328125 -3.929688 3.472656 -3.285156 3.765625 -2.921875 C 4.054688 -2.554688 4.53125 -2.375 5.1875 -2.375 C 5.851562 -2.375 6.332031 -2.554688 6.625 -2.921875 C 6.925781 -3.285156 7.078125 -3.929688 7.078125 -4.859375 L 7.078125 -11.53125 Z M 9.703125 -11.53125 "/></g></g><g style="fill:rgb(100%,100%,100%);fill-opacity:1;"><g transform="translate(218.424683, 290.468302)"><path style="stroke:none;" d="M 3.46875 -7.15625 L 3.46875 0 L 0.84375 0 L 0.84375 -11.53125 L 3.46875 -11.53125 L 8.0625 -4.375 L 8.078125 -4.375 L 8.078125 -11.53125 L 10.71875 -11.53125 L 10.71875 0 L 8.078125 0 L 3.5 -7.15625 Z M 3.46875 -7.15625 "/></g></g><g style="fill:rgb(100%,100%,100%);fill-opacity:1;"><g transform="translate(238.351558, 290.468302)"><path style="stroke:none;" d="M 0.84375 -11.53125 L 4.1875 -11.53125 C 5.789062 -11.53125 7.160156 -10.984375 8.296875 -9.890625 C 9.429688 -8.796875 10 -7.425781 10 -5.78125 C 10 -4.113281 9.429688 -2.734375 8.296875 -1.640625 C 7.160156 -0.546875 5.789062 0 4.1875 0 L 0.84375 0 Z M 3.46875 -2.34375 L 3.875 -2.34375 C 4.832031 -2.34375 5.613281 -2.664062 6.21875 -3.3125 C 6.832031 -3.96875 7.144531 -4.785156 7.15625 -5.765625 C 7.15625 -6.742188 6.847656 -7.554688 6.234375 -8.203125 C 5.628906 -8.859375 4.84375 -9.1875 3.875 -9.1875 L 3.46875 -9.1875 Z M 3.46875 -2.34375 "/></g></g><g style="fill:rgb(100%,100%,100%);fill-opacity:1;"><g transform="translate(257.049188, 290.468302)"><path style="stroke:none;" d="M 5.09375 -11.75 C 5.71875 -11.75 6.328125 -11.65625 6.921875 -11.46875 C 7.515625 -11.289062 7.957031 -11.113281 8.25 -10.9375 L 8.671875 -10.65625 L 7.609375 -8.5625 C 7.523438 -8.613281 7.40625 -8.679688 7.25 -8.765625 C 7.101562 -8.859375 6.820312 -8.976562 6.40625 -9.125 C 6 -9.28125 5.617188 -9.359375 5.265625 -9.359375 C 4.828125 -9.359375 4.488281 -9.265625 4.25 -9.078125 C 4.019531 -8.890625 3.90625 -8.640625 3.90625 -8.328125 C 3.90625 -8.160156 3.957031 -8.007812 4.0625 -7.875 C 4.175781 -7.738281 4.367188 -7.59375 4.640625 -7.4375 C 4.910156 -7.289062 5.144531 -7.171875 5.34375 -7.078125 C 5.550781 -6.984375 5.875 -6.84375 6.3125 -6.65625 C 7.050781 -6.34375 7.679688 -5.910156 8.203125 -5.359375 C 8.734375 -4.816406 9 -4.203125 9 -3.515625 C 9 -2.847656 8.878906 -2.265625 8.640625 -1.765625 C 8.410156 -1.273438 8.085938 -0.890625 7.671875 -0.609375 C 7.253906 -0.335938 6.789062 -0.132812 6.28125 0 C 5.78125 0.132812 5.238281 0.203125 4.65625 0.203125 C 4.15625 0.203125 3.660156 0.148438 3.171875 0.046875 C 2.691406 -0.046875 2.285156 -0.171875 1.953125 -0.328125 C 1.628906 -0.484375 1.335938 -0.632812 1.078125 -0.78125 C 0.816406 -0.925781 0.625 -1.050781 0.5 -1.15625 L 0.328125 -1.3125 L 1.640625 -3.53125 C 1.742188 -3.4375 1.894531 -3.316406 2.09375 -3.171875 C 2.289062 -3.023438 2.640625 -2.828125 3.140625 -2.578125 C 3.640625 -2.335938 4.082031 -2.21875 4.46875 -2.21875 C 5.570312 -2.21875 6.125 -2.597656 6.125 -3.359375 C 6.125 -3.515625 6.082031 -3.660156 6 -3.796875 C 5.925781 -3.929688 5.785156 -4.066406 5.578125 -4.203125 C 5.378906 -4.335938 5.203125 -4.441406 5.046875 -4.515625 C 4.898438 -4.597656 4.648438 -4.71875 4.296875 -4.875 C 3.953125 -5.039062 3.695312 -5.171875 3.53125 -5.265625 C 2.820312 -5.609375 2.273438 -6.035156 1.890625 -6.546875 C 1.515625 -7.066406 1.328125 -7.625 1.328125 -8.21875 C 1.328125 -9.257812 1.707031 -10.109375 2.46875 -10.765625 C 3.238281 -11.421875 4.113281 -11.75 5.09375 -11.75 Z M 5.09375 -11.75 "/></g></g><g style="fill:rgb(100%,100%,100%);fill-opacity:1;"><g transform="translate(128.134376, 315.636952)"><path style="stroke:none;" d="M 3.984375 -1.359375 C 4.222656 -1.359375 4.445312 -1.390625 4.65625 -1.453125 C 4.875 -1.523438 5.035156 -1.59375 5.140625 -1.65625 L 5.28125 -1.765625 L 5.921875 -0.484375 C 5.898438 -0.472656 5.867188 -0.453125 5.828125 -0.421875 C 5.796875 -0.398438 5.710938 -0.351562 5.578125 -0.28125 C 5.441406 -0.207031 5.296875 -0.144531 5.140625 -0.09375 C 4.984375 -0.0390625 4.78125 0.00390625 4.53125 0.046875 C 4.28125 0.0976562 4.023438 0.125 3.765625 0.125 C 3.148438 0.125 2.566406 -0.0234375 2.015625 -0.328125 C 1.460938 -0.628906 1.019531 -1.046875 0.6875 -1.578125 C 0.351562 -2.109375 0.1875 -2.675781 0.1875 -3.28125 C 0.1875 -3.75 0.285156 -4.195312 0.484375 -4.625 C 0.679688 -5.050781 0.941406 -5.414062 1.265625 -5.71875 C 1.597656 -6.019531 1.984375 -6.257812 2.421875 -6.4375 C 2.859375 -6.625 3.304688 -6.71875 3.765625 -6.71875 C 4.191406 -6.71875 4.582031 -6.664062 4.9375 -6.5625 C 5.300781 -6.46875 5.554688 -6.367188 5.703125 -6.265625 L 5.921875 -6.109375 L 5.28125 -4.828125 C 5.25 -4.859375 5.195312 -4.894531 5.125 -4.9375 C 5.050781 -4.988281 4.898438 -5.050781 4.671875 -5.125 C 4.453125 -5.195312 4.222656 -5.234375 3.984375 -5.234375 C 3.628906 -5.234375 3.304688 -5.175781 3.015625 -5.0625 C 2.722656 -4.945312 2.492188 -4.789062 2.328125 -4.59375 C 2.160156 -4.40625 2.03125 -4.195312 1.9375 -3.96875 C 1.851562 -3.75 1.8125 -3.523438 1.8125 -3.296875 C 1.8125 -2.796875 2 -2.347656 2.375 -1.953125 C 2.75 -1.554688 3.285156 -1.359375 3.984375 -1.359375 Z M 3.984375 -1.359375 "/></g></g><g style="fill:rgb(100%,100%,100%);fill-opacity:1;"><g transform="translate(138.958414, 315.636952)"><path style="stroke:none;" d="M 1.984375 -2.640625 L 1.984375 0 L 0.484375 0 L 0.484375 -6.59375 L 1.984375 -6.59375 L 1.984375 -3.96875 L 4.109375 -3.96875 L 4.109375 -6.59375 L 5.609375 -6.59375 L 5.609375 0 L 4.109375 0 L 4.109375 -2.640625 Z M 1.984375 -2.640625 "/></g></g><g style="fill:rgb(100%,100%,100%);fill-opacity:1;"><g transform="translate(149.854453, 315.636952)"><path style="stroke:none;" d="M 3.828125 -6.59375 L 6.5 0 L 4.875 0 L 4.390625 -1.3125 L 1.875 -1.3125 L 1.390625 0 L -0.21875 0 L 2.4375 -6.59375 Z M 3.875 -2.640625 L 3.140625 -4.5625 L 3.125 -4.5625 L 2.390625 -2.640625 Z M 3.875 -2.640625 "/></g></g><g style="fill:rgb(100%,100%,100%);fill-opacity:1;"><g transform="translate(160.926498, 315.636952)"><path style="stroke:none;" d="M 0.484375 -6.59375 L 2.84375 -6.59375 C 3.476562 -6.59375 3.992188 -6.421875 4.390625 -6.078125 C 4.785156 -5.742188 4.984375 -5.265625 4.984375 -4.640625 C 4.984375 -4.148438 4.863281 -3.738281 4.625 -3.40625 C 4.382812 -3.082031 4.054688 -2.859375 3.640625 -2.734375 L 5.90625 0 L 4 0 L 1.984375 -2.609375 L 1.984375 0 L 0.484375 0 Z M 1.984375 -3.671875 L 2.15625 -3.671875 C 2.300781 -3.671875 2.421875 -3.671875 2.515625 -3.671875 C 2.609375 -3.679688 2.71875 -3.703125 2.84375 -3.734375 C 2.96875 -3.765625 3.066406 -3.804688 3.140625 -3.859375 C 3.210938 -3.921875 3.273438 -4.007812 3.328125 -4.125 C 3.378906 -4.238281 3.40625 -4.375 3.40625 -4.53125 C 3.40625 -4.695312 3.378906 -4.832031 3.328125 -4.9375 C 3.273438 -5.050781 3.210938 -5.132812 3.140625 -5.1875 C 3.066406 -5.25 2.96875 -5.296875 2.84375 -5.328125 C 2.71875 -5.367188 2.609375 -5.390625 2.515625 -5.390625 C 2.421875 -5.398438 2.300781 -5.40625 2.15625 -5.40625 L 1.984375 -5.40625 Z M 1.984375 -3.671875 "/></g></g><g style="fill:rgb(100%,100%,100%);fill-opacity:1;"><g transform="translate(171.454535, 315.636952)"><path style="stroke:none;" d="M 1.984375 -6.59375 L 1.984375 0 L 0.484375 0 L 0.484375 -6.59375 Z M 1.984375 -6.59375 "/></g></g><g style="fill:rgb(100%,100%,100%);fill-opacity:1;"><g transform="translate(178.718553, 315.636952)"><path style="stroke:none;" d="M 0.0625 -5.28125 L 0.0625 -6.59375 L 4.703125 -6.59375 L 4.703125 -5.28125 L 3.140625 -5.28125 L 3.140625 0 L 1.625 0 L 1.625 -5.28125 Z M 0.0625 -5.28125 "/></g></g><g style="fill:rgb(100%,100%,100%);fill-opacity:1;"><g transform="translate(188.286587, 315.636952)"><path style="stroke:none;" d="M -0.234375 -6.59375 L 1.5625 -6.59375 L 2.9375 -4.484375 L 4.3125 -6.59375 L 6.125 -6.59375 L 3.703125 -2.953125 L 3.703125 0 L 2.1875 0 L 2.1875 -2.953125 Z M -0.234375 -6.59375 "/></g></g><g style="fill:rgb(100%,100%,100%);fill-opacity:1;"><g transform="translate(198.974625, 315.636952)"><path style="stroke:none;" d=""/></g></g><g style="fill:rgb(100%,100%,100%);fill-opacity:1;"><g transform="translate(205.958634, 315.636952)"><path style="stroke:none;" d="M 5.546875 0 L 4.484375 -3.703125 L 3.4375 0 L 1.765625 0 L -0.125 -6.59375 L 1.546875 -6.59375 L 2.6875 -2.078125 L 2.71875 -2.078125 L 3.921875 -6.59375 L 5.0625 -6.59375 L 6.25 -2.078125 L 6.296875 -2.078125 L 7.421875 -6.59375 L 9.09375 -6.59375 L 7.203125 0 Z M 5.546875 0 "/></g></g><g style="fill:rgb(100%,100%,100%);fill-opacity:1;"><g transform="translate(219.72669, 315.636952)"><path style="stroke:none;" d="M 0.1875 -3.296875 C 0.1875 -4.253906 0.507812 -5.0625 1.15625 -5.71875 C 1.8125 -6.382812 2.597656 -6.71875 3.515625 -6.71875 C 4.429688 -6.71875 5.210938 -6.390625 5.859375 -5.734375 C 6.503906 -5.078125 6.828125 -4.265625 6.828125 -3.296875 C 6.828125 -2.335938 6.507812 -1.523438 5.875 -0.859375 C 5.238281 -0.203125 4.453125 0.125 3.515625 0.125 C 2.546875 0.125 1.75 -0.203125 1.125 -0.859375 C 0.5 -1.515625 0.1875 -2.328125 0.1875 -3.296875 Z M 1.8125 -3.296875 C 1.8125 -2.953125 1.863281 -2.632812 1.96875 -2.34375 C 2.070312 -2.0625 2.253906 -1.820312 2.515625 -1.625 C 2.785156 -1.4375 3.117188 -1.34375 3.515625 -1.34375 C 4.078125 -1.34375 4.5 -1.53125 4.78125 -1.90625 C 5.0625 -2.289062 5.203125 -2.753906 5.203125 -3.296875 C 5.203125 -3.835938 5.054688 -4.300781 4.765625 -4.6875 C 4.484375 -5.070312 4.066406 -5.265625 3.515625 -5.265625 C 2.972656 -5.265625 2.550781 -5.070312 2.25 -4.6875 C 1.957031 -4.300781 1.8125 -3.835938 1.8125 -3.296875 Z M 1.8125 -3.296875 "/></g></g><g style="fill:rgb(100%,100%,100%);fill-opacity:1;"><g transform="translate(231.54274, 315.636952)"><path style="stroke:none;" d="M 0.484375 -6.59375 L 2.84375 -6.59375 C 3.476562 -6.59375 3.992188 -6.421875 4.390625 -6.078125 C 4.785156 -5.742188 4.984375 -5.265625 4.984375 -4.640625 C 4.984375 -4.148438 4.863281 -3.738281 4.625 -3.40625 C 4.382812 -3.082031 4.054688 -2.859375 3.640625 -2.734375 L 5.90625 0 L 4 0 L 1.984375 -2.609375 L 1.984375 0 L 0.484375 0 Z M 1.984375 -3.671875 L 2.15625 -3.671875 C 2.300781 -3.671875 2.421875 -3.671875 2.515625 -3.671875 C 2.609375 -3.679688 2.71875 -3.703125 2.84375 -3.734375 C 2.96875 -3.765625 3.066406 -3.804688 3.140625 -3.859375 C 3.210938 -3.921875 3.273438 -4.007812 3.328125 -4.125 C 3.378906 -4.238281 3.40625 -4.375 3.40625 -4.53125 C 3.40625 -4.695312 3.378906 -4.832031 3.328125 -4.9375 C 3.273438 -5.050781 3.210938 -5.132812 3.140625 -5.1875 C 3.066406 -5.25 2.96875 -5.296875 2.84375 -5.328125 C 2.71875 -5.367188 2.609375 -5.390625 2.515625 -5.390625 C 2.421875 -5.398438 2.300781 -5.40625 2.15625 -5.40625 L 1.984375 -5.40625 Z M 1.984375 -3.671875 "/></g></g><g style="fill:rgb(100%,100%,100%);fill-opacity:1;"><g transform="translate(242.070775, 315.636952)"><path style="stroke:none;" d="M 6.484375 0 L 4.421875 0 L 1.984375 -2.796875 L 1.984375 0 L 0.484375 0 L 0.484375 -6.59375 L 1.984375 -6.59375 L 1.984375 -3.90625 L 4.25 -6.59375 L 6.078125 -6.59375 L 3.421875 -3.46875 Z M 6.484375 0 "/></g></g><g style="fill:rgb(100%,100%,100%);fill-opacity:1;"><g transform="translate(190.644792, 323.636951)"><path style="stroke:none;" d=""/></g></g></g></svg>